<svg 
 xmlns="http://www.w3.org/2000/svg"
 xmlns:xlink="http://www.w3.org/1999/xlink"
 width="42px" height="38px">
<path fill-rule="evenodd"  fill="rgb(153, 40, 107)"
 d="M39.199,15.310 L36.963,8.599 L31.399,8.599 L31.399,16.399 L36.599,16.399 L36.599,18.999 L28.799,18.999 L28.799,5.999 L38.836,5.999 L41.799,14.889 L41.799,21.599 L39.199,21.599 L39.199,15.310 ZM9.235,5.594 L11.794,13.394 L9.324,14.204 L6.764,6.404 L9.235,5.594 ZM17.75,5.594 L19.635,13.394 L17.164,14.204 L14.605,6.404 L17.75,5.594 ZM2.799,15.299 L23.599,18.764 L23.599,5.999 L26.199,5.999 L26.199,21.834 L0.199,17.500 L0.199,0.799 L41.799,0.799 L41.799,3.399 L2.799,3.399 L2.799,15.299 ZM10.599,21.599 C14.901,21.599 18.399,25.98 18.399,29.399 C18.399,33.701 14.901,37.199 10.599,37.199 C6.298,37.199 2.799,33.701 2.799,29.399 C2.799,25.98 6.298,21.599 10.599,21.599 ZM10.599,34.599 C13.467,34.599 15.799,32.267 15.799,29.399 C15.799,26.531 13.467,24.199 10.599,24.199 C7.732,24.199 5.399,26.531 5.399,29.399 C5.399,32.267 7.732,34.599 10.599,34.599 ZM33.999,21.599 C38.301,21.599 41.799,25.98 41.799,29.399 C41.799,33.701 38.301,37.199 33.999,37.199 C29.698,37.199 26.199,33.701 26.199,29.399 C26.199,25.98 29.698,21.599 33.999,21.599 ZM33.999,34.599 C36.867,34.599 39.199,32.267 39.199,29.399 C39.199,26.531 36.867,24.199 33.999,24.199 C31.132,24.199 28.799,26.531 28.799,29.399 C28.799,32.267 31.132,34.599 33.999,34.599 Z"/>
</svg>