<svg 
 xmlns="http://www.w3.org/2000/svg"
 xmlns:xlink="http://www.w3.org/1999/xlink"
 width="40px" height="40px">
<path fill-rule="evenodd"  fill="rgb(153, 40, 107)"
 d="M19.999,39.199 C9.413,39.199 0.799,30.586 0.799,19.999 C0.799,9.413 9.413,0.799 19.999,0.799 C30.586,0.799 39.199,9.413 39.199,19.999 C39.199,30.586 30.586,39.199 19.999,39.199 ZM19.999,3.199 C10.736,3.199 3.199,10.736 3.199,19.999 C3.199,29.263 10.736,36.799 19.999,36.799 C29.263,36.799 36.799,29.263 36.799,19.999 C36.799,10.736 29.263,3.199 19.999,3.199 ZM24.799,19.999 C24.799,22.230 23.264,24.93 21.199,24.629 L21.199,34.399 L18.799,34.399 L18.799,24.629 C18.365,24.516 17.962,24.333 17.584,24.112 L10.665,31.30 L8.969,29.333 L15.876,22.426 C15.452,21.714 15.199,20.889 15.199,19.999 C15.199,17.769 16.735,15.906 18.799,15.370 L18.799,5.599 L21.199,5.599 L21.199,15.370 C21.634,15.483 22.37,15.666 22.415,15.887 L29.333,8.969 L31.30,10.665 L24.123,17.573 C24.547,18.285 24.799,19.110 24.799,19.999 ZM19.999,17.599 C18.676,17.599 17.599,18.676 17.599,19.999 C17.599,21.322 18.676,22.399 19.999,22.399 C21.322,22.399 22.399,21.322 22.399,19.999 C22.399,18.676 21.322,17.599 19.999,17.599 Z"/>
</svg>