<svg 
 xmlns="http://www.w3.org/2000/svg"
 xmlns:xlink="http://www.w3.org/1999/xlink"
 width="22px" height="39px">
<path fill-rule="evenodd"  fill="rgb(153, 40, 107)"
 d="M21.457,24.632 C20.289,26.572 18.688,28.87 16.862,29.164 L19.345,37.723 L17.41,38.391 L14.665,30.200 C13.212,30.728 11.678,31.19 10.126,31.19 C8.372,31.19 6.602,30.666 4.922,29.941 L2.470,38.391 L0.166,37.723 L5.41,20.923 L7.345,21.591 L5.597,27.614 C8.309,28.876 11.339,28.909 13.997,27.899 L12.166,21.591 L14.470,20.923 L16.169,26.776 C17.443,25.923 18.559,24.793 19.402,23.394 L21.457,24.632 ZM9.793,20.57 C6.485,20.57 3.793,17.365 3.793,14.57 C3.793,10.749 6.485,8.57 9.793,8.57 C13.102,8.57 15.793,10.749 15.793,14.57 C15.793,17.365 13.102,20.57 9.793,20.57 ZM9.793,10.457 C7.808,10.457 6.193,12.72 6.193,14.57 C6.193,16.42 7.808,17.657 9.793,17.657 C11.778,17.657 13.393,16.42 13.393,14.57 C13.393,12.72 11.778,10.457 9.793,10.457 ZM8.631,0.857 L10.993,0.857 L10.993,5.657 L8.631,5.657 L8.631,0.857 Z"/>
</svg>