<svg 
 xmlns="http://www.w3.org/2000/svg"
 xmlns:xlink="http://www.w3.org/1999/xlink"
 width="40px" height="40px">
<path fill-rule="evenodd"  fill="rgb(153, 40, 107)"
 d="M26.315,23.599 L23.594,16.224 L18.993,29.97 L15.7,20.467 L13.569,23.599 L0.799,23.599 L0.799,21.199 L12.30,21.199 L15.0,14.727 L18.709,22.759 L23.556,9.192 L27.988,21.199 L39.199,21.199 L39.199,23.599 L26.315,23.599 ZM34.680,18.48 C36.26,16.437 36.799,14.305 36.799,12.199 C36.799,7.237 32.762,3.199 27.799,3.199 C25.126,3.199 22.617,4.356 20.917,6.373 L19.999,7.462 L19.82,6.373 C17.382,4.356 14.873,3.199 12.199,3.199 C7.237,3.199 3.199,7.237 3.199,12.199 C3.199,14.305 3.972,16.437 5.320,18.48 L3.479,19.588 C1.751,17.522 0.799,14.898 0.799,12.199 C0.799,5.913 5.914,0.799 12.199,0.799 C15.130,0.799 17.907,1.901 19.999,3.859 C22.92,1.901 24.869,0.799 27.799,0.799 C34.85,0.799 39.199,5.913 39.199,12.199 C39.199,14.898 38.248,17.522 36.519,19.588 L34.680,18.48 ZM19.357,36.799 L20.642,36.799 L29.882,25.845 L31.717,27.392 L21.757,39.199 L18.242,39.199 L8.282,27.392 L10.116,25.845 L19.357,36.799 Z"/>
</svg>