<svg 
 xmlns="http://www.w3.org/2000/svg"
 xmlns:xlink="http://www.w3.org/1999/xlink"
 width="34px" height="42px">
<path fill-rule="evenodd"  fill="rgb(153, 40, 107)"
 d="M30.804,35.207 L30.611,35.320 L18.624,41.716 L15.374,41.716 L3.195,35.206 C0.310,33.479 0.99,31.591 0.99,28.716 L0.99,11.816 L2.699,11.816 L2.699,28.716 C2.699,31.352 2.867,32.15 4.648,33.44 L4.655,33.49 L16.24,39.116 L17.974,39.116 L29.351,33.44 C31.132,32.15 31.299,31.352 31.299,28.716 L31.299,11.816 L33.899,11.816 L33.899,28.716 C33.899,31.591 33.689,33.479 30.804,35.207 ZM7.899,15.716 L16.999,15.716 L16.999,18.316 L7.899,18.316 L7.899,15.716 ZM26.99,28.716 L7.899,28.716 L7.899,26.116 L26.99,26.116 L26.99,28.716 ZM7.899,20.916 L26.99,20.916 L26.99,23.516 L7.899,23.516 L7.899,20.916 ZM16.999,4.799 C15.406,7.444 12.505,9.216 9.199,9.216 L0.99,9.216 L0.99,6.616 L9.199,6.616 C12.783,6.616 15.699,3.700 15.699,0.116 L18.299,0.116 C18.299,3.700 21.216,6.616 24.799,6.616 L33.899,6.616 L33.899,9.216 L24.799,9.216 C21.494,9.216 18.593,7.444 16.999,4.799 Z"/>
</svg>