<svg 
 xmlns="http://www.w3.org/2000/svg"
 xmlns:xlink="http://www.w3.org/1999/xlink"
 width="38px" height="38px">
<path fill-rule="evenodd"  fill="rgb(153, 40, 107)"
 d="M36.151,7.848 L33.999,5.696 L28.260,11.435 L26.563,9.738 L32.302,3.999 L30.151,1.848 L31.848,0.151 L37.848,6.151 L36.151,7.848 ZM15.690,32.490 C14.286,33.894 12.442,34.595 10.598,34.595 C8.754,34.595 6.911,33.894 5.508,32.490 C2.701,29.682 2.701,25.114 5.508,22.307 L20.490,7.325 L30.671,17.508 L15.690,32.490 ZM16.975,14.234 L18.964,16.221 L17.268,17.920 L15.278,15.933 L16.110,15.99 L13.375,17.834 L15.364,19.821 L13.668,21.520 L11.678,19.532 L12.444,18.765 L9.775,21.434 L11.764,23.421 L10.68,25.120 L8.78,23.133 L8.873,22.336 L7.205,24.4 C5.334,25.876 5.334,28.922 7.205,30.793 C9.75,32.663 12.121,32.663 13.993,30.793 L27.278,17.508 L20.490,10.719 L16.975,14.234 ZM1.848,37.848 L0.151,36.151 L3.95,33.206 L4.792,34.903 L1.848,37.848 Z"/>
</svg>