<svg 
 xmlns="http://www.w3.org/2000/svg"
 xmlns:xlink="http://www.w3.org/1999/xlink"
 width="40px" height="32px">
<path fill-rule="evenodd"  fill="rgb(153, 40, 107)"
 d="M27.178,24.421 L27.178,22.21 L36.778,22.21 L36.778,13.905 L33.636,7.621 L29.578,7.621 L29.578,14.821 L34.378,14.821 L34.378,17.221 L27.178,17.221 L27.178,5.221 L35.120,5.221 L39.178,13.337 L39.178,24.421 L27.178,24.421 ZM0.778,0.421 L24.778,0.421 L24.778,24.421 L0.778,24.421 L0.778,0.421 ZM3.178,22.21 L22.378,22.21 L22.378,2.821 L3.178,2.821 L3.178,22.21 ZM5.578,14.821 L19.978,14.821 L19.978,17.221 L5.578,17.221 L5.578,14.821 ZM10.378,29.221 C11.701,29.221 12.778,28.144 12.778,26.821 L15.178,26.821 C15.178,29.468 13.25,31.621 10.378,31.621 C7.731,31.621 5.578,29.468 5.578,26.821 L7.978,26.821 C7.978,28.144 9.55,29.221 10.378,29.221 ZM33.178,29.221 C34.501,29.221 35.578,28.144 35.578,26.821 L37.978,26.821 C37.978,29.468 35.825,31.621 33.178,31.621 C30.531,31.621 28.378,29.468 28.378,26.821 L30.778,26.821 C30.778,28.144 31.855,29.221 33.178,29.221 Z"/>
</svg>