<svg 
 xmlns="http://www.w3.org/2000/svg"
 xmlns:xlink="http://www.w3.org/1999/xlink"
 width="51px" height="42px">
<path fill-rule="evenodd"  fill="rgb(255, 255, 255)"
 d="M47.326,13.232 C47.285,13.232 47.249,13.219 47.215,13.217 L42.243,36.613 L8.753,36.613 L3.784,13.217 C3.746,13.221 3.716,13.232 3.675,13.232 C1.649,13.232 0.0,11.412 0.0,9.164 C0.0,6.924 1.649,5.102 3.675,5.102 C5.706,5.102 7.358,6.924 7.358,9.164 C7.358,10.623 6.659,11.890 5.616,12.612 C7.826,15.981 10.959,19.896 14.176,21.30 C18.420,22.522 22.370,13.347 24.310,7.893 C22.868,7.342 21.818,5.841 21.818,4.60 C21.818,1.819 23.468,0.0 25.496,0.0 C27.527,0.0 29.174,1.819 29.174,4.60 C29.174,5.841 28.125,7.342 26.682,7.893 C28.627,13.347 32.581,22.522 36.819,21.30 C40.40,19.896 43.167,15.981 45.381,12.612 C44.334,11.890 43.637,10.623 43.637,9.164 C43.637,6.924 45.287,5.102 47.324,5.102 C49.348,5.102 50.997,6.924 50.999,9.164 C50.999,11.412 49.350,13.232 47.326,13.232 ZM42.75,41.999 L8.922,41.999 L8.922,37.436 L42.75,37.436 L42.75,41.999 Z"/>
</svg>