<svg 
 xmlns="http://www.w3.org/2000/svg"
 xmlns:xlink="http://www.w3.org/1999/xlink"
 width="44px" height="47px">
<path fill-rule="evenodd"  fill="rgb(255, 255, 255)"
 d="M4.156,46.999 C1.537,46.999 0.6,45.152 0.6,43.512 C0.6,32.688 0.41,0.0 0.41,0.0 L40.974,0.0 L40.974,3.490 L44.4,3.490 L44.4,46.999 L4.156,46.999 ZM38.374,2.612 C36.30,2.612 4.762,2.612 2.417,2.612 C2.417,3.284 2.417,6.456 2.417,10.708 L38.374,10.708 C38.374,6.456 38.374,3.282 38.374,2.612 ZM38.374,12.597 L2.417,12.597 C2.417,23.433 2.417,39.302 2.417,40.904 C4.762,40.904 36.30,40.904 38.374,40.904 C38.374,39.302 38.374,23.433 38.374,12.597 ZM41.412,6.96 C41.318,6.96 41.160,6.96 40.973,6.96 L40.973,43.512 L2.695,43.512 C2.927,43.965 3.354,44.393 4.156,44.393 C4.156,44.393 38.985,44.393 41.413,44.393 C41.413,42.22 41.413,8.468 41.412,6.96 ZM18.454,33.463 L4.689,33.463 L4.689,30.844 L18.454,30.844 L18.454,33.463 ZM18.454,38.763 L4.689,38.763 L4.689,36.145 L18.454,36.145 L18.454,38.763 ZM35.48,17.535 L21.972,17.535 L21.972,14.925 L35.48,14.925 L35.48,17.535 ZM35.48,22.845 L21.972,22.845 L21.972,20.229 L35.48,20.229 L35.48,22.845 ZM35.48,28.157 L21.972,28.157 L21.972,25.537 L35.48,25.537 L35.48,28.157 ZM35.48,33.176 L21.972,33.176 L21.972,30.556 L35.48,30.556 L35.48,33.176 ZM35.48,38.479 L21.972,38.479 L21.972,35.864 L35.48,35.864 L35.48,38.479 ZM4.836,14.925 L18.204,14.925 L18.204,28.156 L4.836,28.156 L4.836,14.925 ZM28.545,8.967 L13.76,8.967 L13.76,4.314 L28.545,4.314 L28.545,8.967 Z"/>
</svg>