<svg 
 xmlns="http://www.w3.org/2000/svg"
 xmlns:xlink="http://www.w3.org/1999/xlink"
 width="55px" height="52px">
<path fill-rule="evenodd"  fill="rgb(255, 255, 255)"
 d="M30.836,0.0 C22.668,0.0 15.438,4.114 11.62,10.392 C11.968,10.988 12.851,11.806 13.705,12.857 C16.969,7.931 22.248,4.476 28.355,3.733 L30.836,7.969 L33.317,3.733 C42.705,4.875 50.167,12.403 51.299,21.875 L47.100,24.378 L51.299,26.882 C50.542,33.214 46.948,38.666 41.848,41.934 C42.173,42.681 42.356,43.445 42.388,44.233 C42.412,44.808 42.353,45.352 42.235,45.868 C49.826,41.753 54.999,33.665 54.999,24.379 C54.999,10.936 44.160,0.0 30.836,0.0 ZM37.2,40.150 C31.432,35.633 29.875,37.854 27.347,40.403 C25.583,42.184 21.117,38.465 17.262,34.575 C13.406,30.684 9.721,26.180 11.485,24.399 C14.13,21.849 16.213,20.277 11.735,14.659 C7.258,9.38 4.274,13.353 1.826,15.823 C-1.0,18.674 1.677,29.298 12.84,39.800 C22.492,50.300 33.22,52.999 35.847,50.150 C38.295,47.679 42.573,44.669 37.2,40.150 ZM20.38,28.194 C20.38,23.198 25.834,22.309 25.834,20.359 C25.834,19.413 25.84,19.16 24.390,19.16 C23.114,19.16 22.402,20.454 22.402,20.454 L19.963,18.807 C19.963,18.807 21.201,15.893 24.690,15.893 C26.885,15.893 29.267,17.161 29.267,20.38 C29.267,24.258 23.865,25.72 23.771,26.813 L29.473,26.813 L29.473,29.652 L20.188,29.652 C20.94,29.122 20.38,28.649 20.38,28.194 ZM30.845,24.372 L36.22,16.120 L40.36,16.120 L40.36,23.633 L41.630,23.633 L41.630,26.377 L40.36,26.377 L40.36,29.652 L36.791,29.652 L36.791,26.377 L30.845,26.377 L30.845,24.372 L30.845,24.372 ZM36.791,23.633 L36.791,20.606 C36.791,19.867 36.903,19.91 36.903,19.91 L36.866,19.91 C36.866,19.91 36.585,19.924 36.209,20.492 L34.184,23.596 L34.184,23.634 L36.791,23.634 L36.791,23.633 Z"/>
</svg>