<svg 
 xmlns="http://www.w3.org/2000/svg"
 xmlns:xlink="http://www.w3.org/1999/xlink"
 width="44px" height="45px">
<path fill-rule="evenodd"  fill="rgb(255, 255, 255)"
 d="M42.227,6.128 L22.749,0.138 C22.260,0.11 21.737,0.11 21.249,0.138 L1.771,6.128 C0.720,6.452 0.4,7.411 0.4,8.496 C0.4,35.22 13.611,41.363 20.922,44.768 C21.263,44.927 21.630,45.7 21.998,45.7 C22.366,45.7 22.733,44.927 23.74,44.768 C30.385,41.363 43.991,35.22 43.991,8.496 C43.993,7.411 43.277,6.452 42.227,6.128 ZM31.50,7.888 L33.747,8.722 L33.747,30.330 C32.913,31.617 32.5,32.735 31.50,33.717 L31.50,7.888 ZM21.994,39.780 C21.955,39.762 21.934,39.743 21.870,39.724 L21.870,5.141 L21.994,5.104 L25.15,6.31 L25.15,38.245 C23.983,38.822 22.961,39.323 21.994,39.780 ZM36.765,24.7 L36.765,9.652 L38.912,10.313 C38.773,15.903 37.984,20.382 36.765,24.7 Z"/>
</svg>